<?xml version="1.0" encoding="UTF-8" standalone="no"?>
<!-- 2024-03-20 08:46:57 Generated by QCAD 3.29.4 SVG Exporter -->

<svg
   width="80mm"
   height="45mm"
   viewBox="0 -233.1089 80 45"
   version="1.1"
   style="stroke-linecap:round;stroke-linejoin:round;fill:none"
   id="svg16"
   sodipodi:docname="ButtonPanel_labeled.svg"
   inkscape:version="1.3.2 (091e20e, 2023-11-25)"
   xmlns:inkscape="http://www.inkscape.org/namespaces/inkscape"
   xmlns:sodipodi="http://sodipodi.sourceforge.net/DTD/sodipodi-0.dtd"
   xmlns="http://www.w3.org/2000/svg"
   xmlns:svg="http://www.w3.org/2000/svg">
  <defs
     id="defs16" />
  <sodipodi:namedview
     id="namedview16"
     pagecolor="#ffffff"
     bordercolor="#000000"
     borderopacity="0.25"
     inkscape:showpageshadow="2"
     inkscape:pageopacity="0.0"
     inkscape:pagecheckerboard="0"
     inkscape:deskcolor="#d1d1d1"
     inkscape:document-units="mm"
     inkscape:zoom="1.3875926"
     inkscape:cx="150.98092"
     inkscape:cy="84.679034"
     inkscape:window-width="1280"
     inkscape:window-height="724"
     inkscape:window-x="0"
     inkscape:window-y="23"
     inkscape:window-maximized="1"
     inkscape:current-layer="svg16" />
  <g
     transform="matrix(-1,0,0,1,80,-421.2178)"
     id="g16">
    <!-- Polyline -->
    <path
       d="m 0,195.6089 a 7.5,7.5 0 0 1 7.5,-7.5 h 65 a 7.5,7.5 0 0 1 7.5,7.5 v 30 a 7.5,7.5 0 0 1 -7.5,7.5 h -65 a 7.5,7.5 0 0 1 -7.5,-7.5 z"
       style="stroke:#ff0000;stroke-width:1;stroke-dasharray:none;stroke-opacity:1"
       id="path1" />
    <!-- Circle -->
    <circle
       cx="9.9299679"
       cy="223.10886"
       r="2.25"
       style="stroke:#f70000;stroke-width:1;stroke-linejoin:round;stroke-dasharray:none;stroke-opacity:1"
       id="circle1" />
    <!-- Circle -->
    <circle
       cx="9.9299679"
       cy="198.10886"
       r="2.25"
       style="stroke:#ff0000;stroke-width:1;stroke-linejoin:round;stroke-dasharray:none;stroke-opacity:1"
       id="circle2" />
    <!-- Circle -->
    <ellipse
       cx="67.418335"
       cy="211.15886"
       style="stroke:#ff0000;stroke-width:0.897522;stroke-linejoin:round;stroke-dasharray:none;stroke-opacity:1"
       id="circle3"
       rx="5.551239"
       ry="5.8512392" />
    <!-- Text: Push to
Pick -->
    <g
       id="g4">
      <path
         d="m 54.8767,200.2707 h -2.0951 c -0.5666,0 -1.0022,0.0445 -1.307,0.1335 -0.3047,0.0889 -0.5336,0.2174 -0.6868,0.3854 -0.1532,0.168 -0.257,0.3714 -0.3113,0.6102 -0.0544,0.2389 -0.0815,0.6086 -0.0815,1.1094 v 0.6967 c 0,0.5106 0.0527,0.8828 0.1581,1.1167 0.1054,0.2339 0.2989,0.4134 0.5806,0.5386 0.2816,0.1252 0.6498,0.1878 1.1044,0.1878 h 0.5583 v 3.2217 h 2.0803 z m -2.0803,1.3688 v 2.0358 c -0.0593,0.003 -0.1103,0.005 -0.1531,0.005 -0.1911,0 -0.3237,-0.0469 -0.3978,-0.1408 -0.0741,-0.0939 -0.1112,-0.289 -0.1112,-0.5855 v -0.6572 c 0,-0.2734 0.0428,-0.4513 0.1285,-0.5337 0.0856,-0.0823 0.2635,-0.1235 0.5336,-0.1235 m -7.51,0.0741 v 6.5571 h 2.0309 l -0.0346,-0.5435 c 0.1384,0.2207 0.3089,0.3862 0.5114,0.4966 0.2026,0.1103 0.4357,0.1655 0.6992,0.1655 0.2998,0 0.5485,-0.0527 0.7462,-0.1581 0.1976,-0.1054 0.3434,-0.2454 0.4373,-0.42 0.0939,-0.1746 0.1523,-0.3566 0.1754,-0.546 0.0231,-0.1894 0.0346,-0.5658 0.0346,-1.1291 v -4.4225 h -1.9963 v 4.462 c 0,0.5106 -0.0156,0.8137 -0.0469,0.9092 -0.0313,0.0956 -0.1162,0.1433 -0.2545,0.1433 -0.1483,0 -0.2364,-0.0494 -0.2644,-0.1482 -0.028,-0.0988 -0.042,-0.4167 -0.042,-0.9537 v -4.4126 z m -4.7919,2.0951 h 1.769 v -0.3558 c 0,-0.303 0.0173,-0.4949 0.0519,-0.5756 0.0346,-0.0807 0.1211,-0.1211 0.2594,-0.1211 0.112,0 0.196,0.0371 0.252,0.1112 0.056,0.0741 0.084,0.1853 0.084,0.3335 0,0.201 -0.014,0.3484 -0.042,0.4423 -0.028,0.0939 -0.112,0.1968 -0.252,0.3088 -0.14,0.112 -0.4274,0.2751 -0.8622,0.4892 -0.5798,0.2833 -0.9603,0.5501 -1.1415,0.8005 -0.1812,0.2504 -0.2718,0.6144 -0.2718,1.092 0,0.5337 0.0692,0.9364 0.2076,1.2082 0.1383,0.2718 0.3698,0.4809 0.6942,0.6275 0.3245,0.1466 0.7157,0.2199 1.1736,0.2199 0.5073,0 0.9413,-0.079 1.302,-0.2372 0.3608,-0.1581 0.6086,-0.3722 0.7437,-0.6423 0.1351,-0.2702 0.2026,-0.6786 0.2026,-1.2255 v -0.3162 h -1.769 v 0.4151 c 0,0.3524 -0.0222,0.5814 -0.0667,0.6868 -0.0445,0.1054 -0.1326,0.1581 -0.2644,0.1581 -0.1416,0 -0.2404,-0.0354 -0.2964,-0.1062 -0.056,-0.0708 -0.084,-0.2199 -0.084,-0.4472 0,-0.313 0.0362,-0.509 0.1087,-0.588 0.0757,-0.0791 0.4628,-0.313 1.1612,-0.7017 0.5863,-0.3294 0.9438,-0.6284 1.0722,-0.8968 0.1285,-0.2685 0.1928,-0.5872 0.1928,-0.9562 0,-0.5238 -0.0692,-0.91 -0.2076,-1.1587 -0.1383,-0.2487 -0.373,-0.4406 -0.7041,-0.5757 -0.3311,-0.1351 -0.7157,-0.2026 -1.1538,-0.2026 -0.4349,0 -0.8046,0.0552 -1.1093,0.1655 -0.3048,0.1104 -0.5386,0.2562 -0.7017,0.4374 -0.1631,0.1811 -0.2619,0.3491 -0.2965,0.504 -0.0346,0.1548 -0.0519,0.3969 -0.0519,0.7263 z m -2.6823,-3.538 v 1.7987 c -0.1713,-0.1581 -0.3566,-0.2767 -0.5559,-0.3558 -0.1993,-0.0791 -0.4126,-0.1186 -0.6399,-0.1186 -0.3492,0 -0.6465,0.089 -0.8919,0.2668 -0.2454,0.1779 -0.3953,0.383 -0.4497,0.6152 -0.0543,0.2323 -0.0815,0.6564 -0.0815,1.2724 v 4.5213 h 1.9963 v -4.6152 c 0,-0.3821 0.0189,-0.6275 0.0568,-0.7362 0.0379,-0.1087 0.1227,-0.1631 0.2545,-0.1631 0.1219,0 0.2042,0.056 0.247,0.168 0.0429,0.112 0.0643,0.3344 0.0643,0.6671 v 4.6794 h 1.9963 v -8 z m -7.1942,0.5683 v 1.0327 h -0.5386 v 1.0377 h 0.5386 v 3.5083 c 0,0.4316 -0.0222,0.6721 -0.0667,0.7215 -0.0445,0.0494 -0.2298,0.0741 -0.5559,0.0741 v 1.0574 h 0.8054 c 0.4546,0 0.7791,-0.0189 0.9735,-0.0568 0.1943,-0.0379 0.3656,-0.1252 0.5139,-0.2619 0.1482,-0.1367 0.2405,-0.2932 0.2767,-0.4694 0.0362,-0.1762 0.0543,-0.5905 0.0543,-1.2427 v -3.3305 h 0.4299 v -1.0377 h -0.4299 v -1.0327 z m -5.4947,3.1773 v 1.6059 c 0,0.5897 0.0296,1.022 0.0889,1.2971 0.0593,0.2751 0.1861,0.532 0.3805,0.7708 0.1943,0.2389 0.4439,0.4151 0.7486,0.5288 0.3047,0.1136 0.6547,0.1704 1.05,0.1704 0.4415,0 0.8153,-0.0486 1.1217,-0.1457 0.3064,-0.0972 0.5444,-0.2438 0.714,-0.4398 0.1697,-0.196 0.2907,-0.4332 0.3632,-0.7116 0.0725,-0.2783 0.1087,-0.6959 0.1087,-1.2526 v -1.68 c 0,-0.6095 -0.0659,-1.0855 -0.1976,-1.4281 -0.1318,-0.3426 -0.369,-0.6177 -0.7116,-0.8252 -0.3426,-0.2075 -0.7807,-0.3113 -1.3144,-0.3113 -0.448,0 -0.8326,0.0667 -1.1538,0.2001 -0.3212,0.1334 -0.569,0.3072 -0.7436,0.5213 -0.1746,0.2142 -0.294,0.4349 -0.3583,0.6622 -0.0642,0.2273 -0.0963,0.5732 -0.0963,1.0377 m 1.9963,-0.4942 c 0,-0.336 0.0181,-0.5476 0.0543,-0.6349 0.0362,-0.0873 0.1137,-0.131 0.2323,-0.131 0.1185,0 0.1976,0.0437 0.2371,0.131 0.0396,0.0873 0.0593,0.2989 0.0593,0.6349 v 2.9599 c 0,0.3096 -0.0197,0.5114 -0.0593,0.6053 -0.0395,0.0939 -0.1169,0.1408 -0.2322,0.1408 -0.1186,0 -0.1968,-0.0428 -0.2347,-0.1285 -0.0379,-0.0856 -0.0568,-0.2701 -0.0568,-0.5534 z"
         style="fill:#000000;fill-rule:evenodd"
         id="path3" />
      <path
         d="m 48.6686,211.6107 h -2.0952 c -0.5666,0 -1.0022,0.0444 -1.3069,0.1334 -0.3048,0.0889 -0.5337,0.2174 -0.6869,0.3854 -0.1532,0.168 -0.2569,0.3714 -0.3113,0.6103 -0.0543,0.2388 -0.0815,0.6086 -0.0815,1.1093 v 0.6967 c 0,0.5106 0.0527,0.8829 0.1581,1.1168 0.1054,0.2338 0.299,0.4134 0.5806,0.5386 0.2817,0.1251 0.6498,0.1877 1.1044,0.1877 h 0.5584 v 3.2218 h 2.0803 z m -2.0803,1.3687 v 2.0358 c -0.0593,0.003 -0.1104,0.005 -0.1532,0.005 -0.1911,0 -0.3237,-0.047 -0.3978,-0.1408 -0.0741,-0.0939 -0.1112,-0.2891 -0.1112,-0.5856 v -0.6572 c 0,-0.2734 0.0429,-0.4513 0.1285,-0.5336 0.0857,-0.0824 0.2635,-0.1236 0.5337,-0.1236 m -4.9949,-1.3687 v 1.0426 h 2.0556 v -1.0426 z m 0,1.4428 v 6.5572 h 2.0556 v -6.5572 z m -5.1289,2.4756 h 1.8826 v -0.756 c 0,-0.2635 0.0214,-0.4422 0.0643,-0.5361 0.0428,-0.0939 0.1219,-0.1408 0.2371,-0.1408 0.1153,0 0.1928,0.0411 0.2323,0.1235 0.0395,0.0823 0.0593,0.2668 0.0593,0.5534 v 3.0933 c 0,0.2339 -0.0297,0.4093 -0.089,0.5262 -0.0593,0.117 -0.1465,0.1755 -0.2618,0.1755 -0.1351,0 -0.2265,-0.061 -0.2743,-0.1829 -0.0478,-0.1219 -0.0716,-0.3525 -0.0716,-0.6918 v -0.7807 h -1.7789 c 0.0033,0.5238 0.0222,0.9166 0.0568,1.1785 0.0346,0.2619 0.145,0.5304 0.3311,0.8055 0.1861,0.275 0.429,0.4826 0.7288,0.6226 0.2998,0.14 0.6704,0.21 1.1118,0.21 0.5633,0 1.0097,-0.0964 1.3391,-0.2891 0.3294,-0.1927 0.5625,-0.4628 0.6992,-0.8104 0.1367,-0.3475 0.2051,-0.8408 0.2051,-1.4799 v -1.8629 c 0,-0.5567 -0.056,-0.9767 -0.168,-1.26 -0.112,-0.2833 -0.3509,-0.5362 -0.7165,-0.7585 -0.3657,-0.2224 -0.8104,-0.3336 -1.3342,-0.3336 -0.5205,0 -0.9652,0.1104 -1.3341,0.3311 -0.369,0.2207 -0.6144,0.4991 -0.7363,0.8351 -0.1219,0.336 -0.1828,0.812 -0.1828,1.428 m -4.8909,-2.4756 0.8103,2.614 -1.0525,3.9432 h 1.9222 l 0.6226,-2.8561 v 2.8561 h 1.9963 v -8 h -1.9963 v 3.3601 l -0.6226,-1.9173 z"
         style="fill:#000000;fill-rule:evenodd"
         id="path4" />
    </g>
    <!-- Text: QCAD.org
Trial Version
Random lines added -->
    <!-- Line -->
    <!-- Line -->
    <!-- Line -->
    <!-- Text: QCAD.org
Trial Version
Random lines added -->
    <!-- Line -->
    <!-- Line -->
    <!-- Line -->
  </g>
</svg>
